<svg width="24" height="24" viewBox="0 0 24 24" fill="none" xmlns="http://www.w3.org/2000/svg">
<g id="frame">
<path id="vector" d="M5.10575 13.1507C5.2044 13.1506 5.30211 13.1699 5.39327 13.2076C5.48444 13.2453 5.56727 13.3006 5.63703 13.3704C5.70679 13.4401 5.7621 13.5229 5.79979 13.6141C5.83748 13.7053 5.85682 13.803 5.8567 13.9016L5.85564 16.3337L9.87872 12.3106C10.0194 12.17 10.2101 12.091 10.4091 12.091C10.608 12.091 10.7987 12.17 10.9394 12.3106C11.08 12.4513 11.1591 12.6421 11.1591 12.841C11.1591 13.0399 11.08 13.2306 10.9394 13.3713L6.9163 17.3944L9.34839 17.3933C9.54756 17.3933 9.73856 17.4724 9.87939 17.6133C10.0202 17.7541 10.0993 17.9451 10.0993 18.1443C10.0993 18.3434 10.0202 18.5344 9.87939 18.6753C9.73856 18.8161 9.54756 18.8952 9.34839 18.8952L5.10575 18.8952C5.0071 18.8953 4.90939 18.876 4.81823 18.8383C4.72706 18.8006 4.64423 18.7453 4.57447 18.6755C4.50472 18.6058 4.44941 18.523 4.41171 18.4318C4.37402 18.3406 4.35468 18.2429 4.3548 18.1443L4.3548 13.9016C4.35468 13.803 4.37402 13.7053 4.41171 13.6141C4.44941 13.5229 4.50472 13.4401 4.57447 13.3704C4.64423 13.3006 4.72706 13.2453 4.81823 13.2076C4.90939 13.1699 5.0071 13.1506 5.10575 13.1507ZM13.9007 4.35569C13.9006 4.25704 13.92 4.15933 13.9577 4.06816C13.9953 3.977 14.0507 3.89417 14.1204 3.82441C14.1902 3.75465 14.273 3.69934 14.3642 3.66165C14.4553 3.62395 14.553 3.60461 14.6517 3.60474L18.8943 3.60474C18.993 3.60461 19.0907 3.62395 19.1819 3.66165C19.273 3.69934 19.3559 3.75465 19.4256 3.82441C19.4954 3.89417 19.5507 3.977 19.5884 4.06816C19.6261 4.15933 19.6454 4.25703 19.6453 4.35569L19.6453 8.59833C19.6453 8.79749 19.5662 8.9885 19.4253 9.12933C19.2845 9.27016 19.0935 9.34928 18.8943 9.34928C18.6952 9.34927 18.5042 9.27016 18.3633 9.12933C18.2225 8.9885 18.1434 8.79749 18.1434 8.59833L18.1444 6.16623L14.1214 10.1893C13.9807 10.33 13.7899 10.409 13.591 10.409C13.3921 10.409 13.2014 10.33 13.0607 10.1893C12.9201 10.0487 12.841 9.8579 12.841 9.65899C12.841 9.46008 12.9201 9.26931 13.0607 9.12866L17.0838 5.10557L14.6517 5.10663C14.553 5.10676 14.4553 5.08742 14.3642 5.04972C14.273 5.01203 14.1902 4.95672 14.1204 4.88696C14.0507 4.81721 13.9953 4.73437 13.9577 4.64321C13.92 4.55204 13.9006 4.45434 13.9007 4.35569Z" fill="#CCCCFF"/>
</g>
</svg>
