<svg width="44" height="44" viewBox="0 0 44 44" fill="none" xmlns="http://www.w3.org/2000/svg">
<g id="material-symbols-light:auto-awesome-mosaic-outline">
<path id="vector" d="M20.1667 36.6667H10.296C9.45149 36.6667 8.74687 36.3843 8.18221 35.8197C7.61754 35.255 7.3346 34.5498 7.33337 33.704V10.296C7.33337 9.45144 7.61632 8.74683 8.18221 8.18216C8.7481 7.61749 9.45271 7.33455 10.296 7.33333H20.1667V36.6667ZM18.3334 34.8333V9.16666H10.296C9.96604 9.16666 9.69532 9.27238 9.48387 9.48383C9.27243 9.69527 9.16671 9.966 9.16671 10.296V33.7058C9.16671 34.0346 9.27243 34.3047 9.48387 34.5162C9.69532 34.7276 9.96604 34.8333 10.296 34.8333H18.3334ZM23.8334 20.1667V7.33333H33.7059C34.5492 7.33333 35.2532 7.61627 35.8179 8.18216C36.3825 8.74805 36.6655 9.45266 36.6667 10.296V20.1667H23.8334ZM25.6667 18.3333H34.8334V10.296C34.8334 9.966 34.7277 9.69527 34.5162 9.48383C34.3048 9.27238 34.0347 9.16666 33.7059 9.16666H25.6667V18.3333ZM23.8334 36.6667V23.8333H36.6667V33.7058C36.6667 34.5492 36.3844 35.2532 35.8197 35.8178C35.255 36.3825 34.5498 36.6654 33.704 36.6667H23.8334ZM25.6667 34.8333H33.7059C34.0347 34.8333 34.3048 34.7276 34.5162 34.5162C34.7277 34.3047 34.8334 34.0346 34.8334 33.7058V25.6667H25.6667V34.8333Z" fill="#CCCCFF"/>
</g>
</svg>
