<svg width="24" height="24" viewBox="0 0 24 24" fill="none" xmlns="http://www.w3.org/2000/svg">
<g id="frame">
<path id="vector" d="M10.5 17.27C10.358 17.27 10.2393 17.2216 10.144 17.125C10.0487 17.0283 10.0007 16.9093 10 16.768C9.99933 16.6266 10.0473 16.508 10.144 16.412C10.2407 16.316 10.3593 16.2683 10.5 16.269H19.5C19.642 16.269 19.7607 16.317 19.856 16.413C19.952 16.509 20 16.628 20 16.77C20 16.912 19.952 17.0306 19.856 17.126C19.76 17.2213 19.6413 17.269 19.5 17.269L10.5 17.27ZM10.5 12.5C10.358 12.5 10.2393 12.452 10.144 12.356C10.0487 12.26 10.0007 12.141 10 11.999C9.99933 11.857 10.0473 11.7383 10.144 11.643C10.2407 11.5476 10.3593 11.5 10.5 11.5H19.5C19.642 11.5 19.7607 11.548 19.856 11.644C19.9513 11.74 19.9993 11.859 20 12.001C20.0007 12.143 19.9527 12.2616 19.856 12.357C19.7593 12.4523 19.6407 12.5 19.5 12.5H10.5ZM4.5 7.72996C4.358 7.72996 4.23933 7.68229 4.144 7.58696C4.048 7.49096 4 7.37196 4 7.22996C4 7.08796 4.048 6.96929 4.144 6.87396C4.24 6.77862 4.35867 6.73096 4.5 6.73096H19.5C19.642 6.73096 19.7607 6.77896 19.856 6.87496C19.9513 6.97096 19.9993 7.08996 20 7.23196C20.0007 7.37396 19.9527 7.49262 19.856 7.58796C19.7593 7.68329 19.6407 7.73096 19.5 7.73096L4.5 7.72996Z" fill="#CCCCFF"/>
</g>
</svg>
