<svg width="34" height="35" viewBox="0 0 34 35" fill="none" xmlns="http://www.w3.org/2000/svg">
<g id="material-symbols-light:notifications-active">
<g id="vector">
<mask id="path-1-inside-1_816_778" fill="white">
<path d="M7.08343 27.0908V25.6742H9.37276V14.4471C9.37276 12.596 9.95832 10.9682 11.1294 9.56383C12.3005 8.15944 13.7852 7.28489 15.5834 6.94016V6.16666C15.5834 5.77661 15.7218 5.44275 15.9985 5.16508C16.2752 4.88741 16.6091 4.74905 17.0001 4.75C17.3911 4.75094 17.725 4.8893 18.0017 5.16508C18.2784 5.44086 18.4168 5.77472 18.4168 6.16666V6.94016C20.215 7.28489 21.6996 8.15991 22.8708 9.56525C24.0419 10.9706 24.6274 12.5983 24.6274 14.4485V25.6727H26.9168V27.0894L7.08343 27.0908ZM17.0001 30.7954C16.3664 30.7954 15.8266 30.5721 15.3808 30.1253C14.9351 29.6796 14.7122 29.1398 14.7122 28.5061H19.288C19.288 29.1407 19.0651 29.681 18.6193 30.1267C18.1736 30.5725 17.6338 30.7945 17.0001 30.7926M4.57593 14.4216C4.57593 12.3504 5.03823 10.4474 5.96284 8.71241C6.88557 6.97652 8.12373 5.54097 9.67734 4.40575L10.4962 5.55608C9.13429 6.55908 8.04393 7.82889 7.22509 9.3655C6.40532 10.9012 5.99543 12.5865 5.99543 14.4216H4.57593ZM28.0076 14.4216C28.0076 12.5865 27.5972 10.9007 26.7765 9.36408C25.9567 7.82841 24.8659 6.55908 23.504 5.55608L24.3228 4.40716C25.8755 5.54144 27.1137 6.97652 28.0373 8.71241C28.961 10.4474 29.4228 12.3504 29.4228 14.4216H28.0076Z"/>
</mask>
<path d="M7.08343 27.0908H6.08343V28.0909L7.0835 28.0908L7.08343 27.0908ZM7.08343 25.6742V24.6742H6.08343V25.6742H7.08343ZM9.37276 25.6742V26.6742H10.3728V25.6742H9.37276ZM15.5834 6.94016L15.7717 7.92228L16.5834 7.76667V6.94016H15.5834ZM18.4168 6.94016H17.4168V7.76667L18.2285 7.92228L18.4168 6.94016ZM24.6274 25.6727H23.6274V26.6727H24.6274V25.6727ZM26.9168 25.6727H27.9168V24.6727H26.9168V25.6727ZM26.9168 27.0894L26.9168 28.0894L27.9168 28.0893V27.0894H26.9168ZM15.3808 30.1253L16.0887 29.419L16.088 29.4182L15.3808 30.1253ZM14.7122 28.5061V27.5061H13.7122V28.5061H14.7122ZM19.288 28.5061H20.288V27.5061H19.288V28.5061ZM4.57593 14.4216H3.57593V15.4216H4.57593V14.4216ZM5.96284 8.71241L6.84534 9.18273L6.84585 9.18178L5.96284 8.71241ZM9.67734 4.40575L10.492 3.82584L9.90487 3.00098L9.08736 3.59833L9.67734 4.40575ZM10.4962 5.55608L11.0892 6.36128L11.8815 5.77778L11.3109 4.97617L10.4962 5.55608ZM7.22509 9.3655L8.10727 9.83642L8.10761 9.83577L7.22509 9.3655ZM5.99543 14.4216V15.4216H6.99543V14.4216H5.99543ZM28.0076 14.4216H27.0076V15.4216H28.0076V14.4216ZM26.7765 9.36408L25.8943 9.83501L25.8944 9.8352L26.7765 9.36408ZM23.504 5.55608L22.6897 4.9757L22.1183 5.77744L22.911 6.36128L23.504 5.55608ZM24.3228 4.40716L24.9127 3.59968L24.0957 3.00283L23.5085 3.82678L24.3228 4.40716ZM28.0373 8.71241L27.1545 9.18215L27.1546 9.18235L28.0373 8.71241ZM29.4228 14.4216V15.4216H30.4228V14.4216H29.4228ZM8.08343 27.0908V25.6742H6.08343V27.0908H8.08343ZM7.08343 26.6742H9.37276V24.6742H7.08343V26.6742ZM10.3728 25.6742V14.4471H8.37276V25.6742H10.3728ZM10.3728 14.4471C10.3728 12.8269 10.8782 11.4265 11.8974 10.2043L10.3614 8.92339C9.03841 10.5099 8.37276 12.3651 8.37276 14.4471H10.3728ZM11.8974 10.2043C12.9204 8.97757 14.2001 8.22356 15.7717 7.92228L15.3952 5.95805C13.3703 6.34621 11.6807 7.34131 10.3614 8.92339L11.8974 10.2043ZM16.5834 6.94016V6.16666H14.5834V6.94016H16.5834ZM16.5834 6.16666C16.5834 6.04272 16.6158 5.96227 16.7068 5.87098L15.2902 4.45918C14.8277 4.92323 14.5834 5.51049 14.5834 6.16666H16.5834ZM16.7068 5.87098C16.7959 5.78163 16.8741 5.7497 16.9977 5.74999L17.0025 3.75C16.3441 3.74841 15.7546 3.9932 15.2902 4.45918L16.7068 5.87098ZM16.9977 5.74999C17.1251 5.7503 17.2061 5.784 17.2958 5.87339L18.7076 4.45677C18.2438 3.99461 17.6571 3.75158 17.0025 3.75L16.9977 5.74999ZM17.2958 5.87339C17.3835 5.96086 17.4168 6.03956 17.4168 6.16666H19.4168C19.4168 5.50988 19.1733 4.92086 18.7076 4.45677L17.2958 5.87339ZM17.4168 6.16666V6.94016H19.4168V6.16666H17.4168ZM18.2285 7.92228C19.7999 8.22352 21.0796 8.97785 22.1025 10.2054L23.639 8.92506C22.3197 7.34197 20.6301 6.34625 18.605 5.95805L18.2285 7.92228ZM22.1025 10.2054C23.122 11.4288 23.6274 12.8294 23.6274 14.4485H25.6274C25.6274 12.3673 24.9617 10.5123 23.639 8.92506L22.1025 10.2054ZM23.6274 14.4485V25.6727H25.6274V14.4485H23.6274ZM24.6274 26.6727H26.9168V24.6727H24.6274V26.6727ZM25.9168 25.6727V27.0894H27.9168V25.6727H25.9168ZM26.9167 26.0894L7.08336 26.0908L7.0835 28.0908L26.9168 28.0894L26.9167 26.0894ZM17.0001 29.7954C16.6307 29.7954 16.346 29.6768 16.0887 29.419L14.673 30.8317C15.3072 31.4673 16.102 31.7954 17.0001 31.7954V29.7954ZM16.088 29.4182C15.8308 29.1611 15.7122 28.8761 15.7122 28.5061H13.7122C13.7122 29.4035 14.0393 30.198 14.6737 30.8324L16.088 29.4182ZM14.7122 29.5061H19.288V27.5061H14.7122V29.5061ZM18.288 28.5061C18.288 28.8775 18.1691 29.1628 17.9122 29.4196L19.3265 30.8339C19.9612 30.1991 20.288 29.404 20.288 28.5061H18.288ZM17.9122 29.4196C17.6558 29.676 17.3721 29.7937 17.0031 29.7926L16.9971 31.7926C17.8955 31.7953 18.6913 31.469 19.3265 30.8339L17.9122 29.4196ZM5.57593 14.4216C5.57593 12.5054 6.00203 10.7651 6.84534 9.18273L5.08035 8.2421C4.07443 10.1296 3.57593 12.1954 3.57593 14.4216H5.57593ZM6.84585 9.18178C7.69927 7.57627 8.83837 6.2573 10.2673 5.21316L9.08736 3.59833C7.4091 4.82464 6.07187 6.37678 5.07984 8.24305L6.84585 9.18178ZM8.86266 4.98566L9.6815 6.13599L11.3109 4.97617L10.492 3.82584L8.86266 4.98566ZM9.90317 4.75088C8.41737 5.84514 7.22955 7.23074 6.34258 8.89522L8.10761 9.83577C8.85831 8.42703 9.85121 7.27302 11.0892 6.36128L9.90317 4.75088ZM6.34292 8.89457C5.44157 10.583 4.99543 12.4314 4.99543 14.4216H6.99543C6.99543 12.7416 7.36906 11.2193 8.10727 9.83642L6.34292 8.89457ZM5.99543 13.4216H4.57593V15.4216H5.99543V13.4216ZM29.0076 14.4216C29.0076 12.4312 28.5609 10.5823 27.6586 8.89296L25.8944 9.8352C26.6336 11.2191 27.0076 12.7418 27.0076 14.4216H29.0076ZM27.6587 8.89315C26.7708 7.22985 25.5826 5.84497 24.097 4.75088L22.911 6.36128C24.1492 7.27319 25.1427 8.42697 25.8943 9.83501L27.6587 8.89315ZM24.3184 6.13646L25.1372 4.98755L23.5085 3.82678L22.6897 4.9757L24.3184 6.13646ZM23.733 5.21464C25.1609 6.25783 26.3001 7.57639 27.1545 9.18215L28.9201 8.24267C27.9272 6.37666 26.5901 4.82505 24.9127 3.59968L23.733 5.21464ZM27.1546 9.18235C27.9971 10.7648 28.4228 12.5052 28.4228 14.4216H30.4228C30.4228 12.1956 29.9249 10.1299 28.92 8.24247L27.1546 9.18235ZM29.4228 13.4216H28.0076V15.4216H29.4228V13.4216Z" fill="#CCCCFF" mask="url(#path-1-inside-1_816_778)"/>
</g>
</g>
</svg>
