<svg width="44" height="44" viewBox="0 0 44 44" fill="none" xmlns="http://www.w3.org/2000/svg">
<g id="material-symbols-light:favorite-rounded">
<g id="vector">
<mask id="path-1-inside-1_816_1653" fill="white">
<path d="M21.9633 35.0057C21.6077 35.0057 21.2551 34.9409 20.9055 34.8113C20.5559 34.683 20.2486 34.4856 19.9833 34.2192L17.8787 32.3217C14.6153 29.3578 11.737 26.4752 9.24367 23.6738C6.74789 20.8737 5.5 17.963 5.5 14.9417C5.5 12.6097 6.292 10.6517 7.876 9.06767C9.46 7.48367 11.418 6.69167 13.75 6.69167C15.0871 6.69167 16.4798 7.02961 17.9282 7.7055C19.3765 8.38139 20.7338 9.65617 22 11.5298C23.2674 9.65617 24.6247 8.38139 26.0718 7.7055C27.5189 7.02961 28.9117 6.69167 30.25 6.69167C32.582 6.69167 34.54 7.48367 36.124 9.06767C37.708 10.6517 38.5 12.6097 38.5 14.9417C38.5 18.0327 37.2014 21.0039 34.6042 23.8553C32.0069 26.7068 29.1641 29.5313 26.0755 32.329L23.9818 34.2192C23.7154 34.4856 23.4019 34.683 23.0413 34.8113C22.6808 34.9397 22.3221 35.0044 21.9652 35.0057"/>
</mask>
<path d="M20.9055 34.8113L21.6006 32.936L21.5948 32.9339L20.9055 34.8113ZM19.9833 34.2192L21.4008 32.8082L21.3627 32.7699L21.3225 32.7337L19.9833 34.2192ZM17.8787 32.3217L16.534 33.8022L16.5394 33.8071L17.8787 32.3217ZM9.24367 23.6738L10.7376 22.3441L10.7367 22.3431L9.24367 23.6738ZM13.75 6.69167V8.69167V6.69167ZM22 11.5298L20.3429 12.6497L21.9992 15.1005L23.6566 12.6504L22 11.5298ZM30.25 6.69167V8.69167V6.69167ZM26.0755 32.329L27.4157 33.8135L27.4182 33.8113L26.0755 32.329ZM23.9818 34.2192L22.6416 32.7346L22.6037 32.7689L22.5676 32.805L23.9818 34.2192ZM21.9633 33.0057C21.8562 33.0057 21.7385 32.9871 21.6006 32.936L20.2104 36.6867C20.7716 36.8947 21.3591 37.0057 21.9633 37.0057V33.0057ZM21.5948 32.9339C21.5218 32.9071 21.4623 32.87 21.4008 32.8082L18.5659 35.6301C19.0349 36.1013 19.5901 36.4589 20.2162 36.6888L21.5948 32.9339ZM21.3225 32.7337L19.2179 30.8362L16.5394 33.8071L18.6441 35.7046L21.3225 32.7337ZM19.2233 30.8412C16.0036 27.9169 13.1766 25.0844 10.7376 22.3441L7.74971 25.0035C10.2974 27.8659 13.2271 30.7987 16.534 33.8022L19.2233 30.8412ZM10.7367 22.3431C8.48539 19.8173 7.5 17.3615 7.5 14.9417H3.5C3.5 18.5645 5.01039 21.9302 7.75065 25.0046L10.7367 22.3431ZM7.5 14.9417C7.5 13.1158 8.0981 11.674 9.29021 10.4819L6.46179 7.65345C4.4859 9.62934 3.5 12.1035 3.5 14.9417H7.5ZM9.29021 10.4819C10.4823 9.28977 11.9242 8.69167 13.75 8.69167V4.69167C10.9118 4.69167 8.43768 5.67756 6.46179 7.65345L9.29021 10.4819ZM13.75 8.69167C14.7434 8.69167 15.8479 8.94175 17.0824 9.51787L18.7739 5.89313C17.1118 5.11747 15.4309 4.69167 13.75 4.69167V8.69167ZM17.0824 9.51787C18.0938 9.98983 19.1996 10.9578 20.3429 12.6497L23.6571 10.41C22.268 8.35448 20.6592 6.77294 18.7739 5.89313L17.0824 9.51787ZM23.6566 12.6504C24.8015 10.9579 25.9076 9.98959 26.9182 9.51759L25.2255 5.89341C23.3418 6.77318 21.7334 8.3544 20.3434 10.4092L23.6566 12.6504ZM26.9182 9.51759C28.1509 8.94184 29.2552 8.69167 30.25 8.69167V4.69167C28.5681 4.69167 26.887 5.11738 25.2255 5.89341L26.9182 9.51759ZM30.25 8.69167C32.0758 8.69167 33.5177 9.28977 34.7098 10.4819L37.5382 7.65345C35.5623 5.67756 33.0882 4.69167 30.25 4.69167V8.69167ZM34.7098 10.4819C35.9019 11.674 36.5 13.1158 36.5 14.9417H40.5C40.5 12.1035 39.5141 9.62934 37.5382 7.65345L34.7098 10.4819ZM36.5 14.9417C36.5 17.4192 35.474 19.9303 33.1256 22.5086L36.0828 25.2021C38.9288 22.0775 40.5 18.6461 40.5 14.9417H36.5ZM33.1256 22.5086C30.5747 25.3091 27.7777 28.0886 24.7328 30.8467L27.4182 33.8113C30.5504 30.974 33.4392 28.1045 36.0828 25.2021L33.1256 22.5086ZM24.7353 30.8445L22.6416 32.7346L25.3221 35.7037L27.4157 33.8135L24.7353 30.8445ZM22.5676 32.805C22.5145 32.8581 22.4561 32.8967 22.3707 32.9271L23.712 36.6955C24.3477 36.4693 24.9163 36.1131 25.396 35.6334L22.5676 32.805ZM22.3707 32.9271C22.2078 32.9851 22.0731 33.0053 21.9583 33.0057L21.972 37.0057C22.571 37.0036 23.1538 36.8942 23.712 36.6955L22.3707 32.9271Z" fill="#CCCCFF" mask="url(#path-1-inside-1_816_1653)"/>
</g>
</g>
</svg>
