<svg width="44" height="44" viewBox="0 0 44 44" fill="none" xmlns="http://www.w3.org/2000/svg">
<g id="material-symbols-light:play-arrow-rounded">
<rect width="44" height="44" rx="22" fill="#CCCCFF"/>
<path id="vector" d="M16.5 28.809V15.1929C16.5 14.7431 16.6491 14.3838 16.9473 14.1149C17.2443 13.846 17.5914 13.7115 17.9887 13.7115C18.1133 13.7115 18.2435 13.7287 18.3792 13.7629C18.5136 13.7959 18.6426 13.8466 18.766 13.915L29.4782 20.7589C29.7055 20.9178 29.8766 21.0999 29.9915 21.3052C30.1052 21.5093 30.162 21.7409 30.162 22C30.162 22.2592 30.1052 22.4908 29.9915 22.6949C29.8778 22.899 29.7067 23.0811 29.4782 23.2412L18.766 30.085C18.6426 30.1523 18.5124 30.203 18.3755 30.2372C18.2386 30.2714 18.1084 30.2885 17.985 30.2885C17.5866 30.2885 17.2394 30.1541 16.9437 29.8852C16.6479 29.6163 16.5 29.2576 16.5 28.809Z" fill="#00010D"/>
</g>
</svg>
