<svg width="24" height="24" viewBox="0 0 24 24" fill="none" xmlns="http://www.w3.org/2000/svg">
<g id="material-symbols-light:add-circle-outline-rounded">
<path id="vector" d="M11.5 12.5V16C11.5 16.142 11.548 16.2607 11.644 16.356C11.74 16.4513 11.859 16.4993 12.001 16.5C12.143 16.5007 12.2617 16.4527 12.357 16.356C12.4523 16.2593 12.5 16.1407 12.5 16V12.5H16C16.142 12.5 16.2607 12.452 16.356 12.356C16.4513 12.26 16.4993 12.141 16.5 11.999C16.5007 11.857 16.4527 11.7383 16.356 11.643C16.2593 11.5477 16.1407 11.5 16 11.5H12.5V8C12.5 7.858 12.452 7.73933 12.356 7.644C12.26 7.54867 12.141 7.50067 11.999 7.5C11.857 7.49933 11.7383 7.54733 11.643 7.644C11.5477 7.74067 11.5 7.85933 11.5 8V11.5H8C7.858 11.5 7.73933 11.548 7.644 11.644C7.54867 11.74 7.50067 11.859 7.5 12.001C7.49933 12.143 7.54733 12.2617 7.644 12.357C7.74067 12.4523 7.85933 12.5 8 12.5H11.5ZM12.003 21C10.7583 21 9.58833 20.764 8.493 20.292C7.39767 19.8193 6.44467 19.178 5.634 18.368C4.82333 17.558 4.18167 16.606 3.709 15.512C3.23633 14.418 3 13.2483 3 12.003C3 10.7577 3.23633 9.58767 3.709 8.493C4.181 7.39767 4.82133 6.44467 5.63 5.634C6.43867 4.82333 7.391 4.18167 8.487 3.709C9.583 3.23633 10.753 3 11.997 3C13.241 3 14.411 3.23633 15.507 3.709C16.6023 4.181 17.5553 4.82167 18.366 5.631C19.1767 6.44033 19.8183 7.39267 20.291 8.488C20.7637 9.58333 21 10.753 21 11.997C21 13.241 20.764 14.411 20.292 15.507C19.82 16.603 19.1787 17.556 18.368 18.366C17.5573 19.176 16.6053 19.8177 15.512 20.291C14.4187 20.7643 13.249 21.0007 12.003 21ZM12 20C14.2333 20 16.125 19.225 17.675 17.675C19.225 16.125 20 14.2333 20 12C20 9.76667 19.225 7.875 17.675 6.325C16.125 4.775 14.2333 4 12 4C9.76667 4 7.875 4.775 6.325 6.325C4.775 7.875 4 9.76667 4 12C4 14.2333 4.775 16.125 6.325 17.675C7.875 19.225 9.76667 20 12 20Z" fill="#CCCCFF"/>
</g>
</svg>
