<svg width="24" height="24" viewBox="0 0 24 24" fill="none" xmlns="http://www.w3.org/2000/svg">
<g id="material-symbols-light:repeat-rounded">
<path id="vector" d="M5.92698 18.192L7.66198 19.927C7.75931 20.0243 7.81031 20.139 7.81498 20.271C7.81898 20.403 7.76798 20.524 7.66198 20.634C7.55131 20.7446 7.43231 20.801 7.30498 20.803C7.17765 20.805 7.05865 20.751 6.94798 20.641L4.56598 18.258C4.47865 18.1706 4.41731 18.0813 4.38198 17.99C4.34665 17.8993 4.32898 17.8 4.32898 17.692C4.32898 17.584 4.34665 17.4846 4.38198 17.394C4.41731 17.3033 4.47865 17.2143 4.56598 17.127L6.94798 14.744C7.04531 14.6466 7.16098 14.5956 7.29498 14.591C7.42898 14.5863 7.55131 14.6393 7.66198 14.75C7.76865 14.86 7.82265 14.978 7.82398 15.104C7.82531 15.23 7.77131 15.348 7.66198 15.458L5.92698 17.192H16.692C16.872 17.192 17.0196 17.1343 17.135 17.019C17.2503 16.9036 17.308 16.7563 17.308 16.577V13.692C17.308 13.55 17.3556 13.4313 17.451 13.336C17.5463 13.2406 17.6653 13.1926 17.808 13.192C17.9506 13.1913 18.0696 13.2393 18.165 13.336C18.2603 13.4326 18.308 13.5513 18.308 13.692V16.577C18.308 17.0243 18.1506 17.4053 17.836 17.72C17.5213 18.0346 17.14 18.192 16.692 18.192H5.92698ZM18.073 6.80795H7.30798C7.12798 6.80795 6.98065 6.86562 6.86598 6.98095C6.74998 7.09629 6.69198 7.24362 6.69198 7.42295V10.308C6.69198 10.45 6.64431 10.569 6.54898 10.665C6.45365 10.761 6.33465 10.8086 6.19198 10.808C6.04931 10.8073 5.93065 10.7596 5.83598 10.665C5.74131 10.5703 5.69331 10.4513 5.69198 10.308V7.42295C5.69198 6.97562 5.84931 6.59462 6.16398 6.27995C6.47865 5.96529 6.85998 5.80795 7.30798 5.80795H18.073L16.339 4.07295C16.241 3.97562 16.19 3.86095 16.186 3.72895C16.182 3.59695 16.233 3.47595 16.339 3.36595C16.449 3.25529 16.5676 3.19895 16.695 3.19695C16.823 3.19495 16.942 3.24929 17.052 3.35995L19.435 5.74195C19.5216 5.82929 19.5826 5.91862 19.618 6.00995C19.6533 6.10062 19.671 6.19995 19.671 6.30795C19.671 6.41595 19.6533 6.51529 19.618 6.60595C19.5833 6.69662 19.5223 6.78562 19.435 6.87295L17.052 9.25595C16.9546 9.35329 16.839 9.40429 16.705 9.40895C16.571 9.41362 16.449 9.36062 16.339 9.24995C16.2323 9.13995 16.178 9.02195 16.176 8.89595C16.174 8.76995 16.2283 8.65195 16.339 8.54195L18.073 6.80795Z" fill="#CCCCFF"/>
</g>
</svg>
