<svg width="34" height="34" viewBox="0 0 34 34" fill="none" xmlns="http://www.w3.org/2000/svg">
<g id="material-symbols-light:skip-next-rounded">
<path id="vector" d="M23.0492 22.831V11.1704C23.0492 10.9693 23.1168 10.8007 23.2518 10.6647C23.3878 10.5287 23.5564 10.4607 23.7576 10.4607C23.9587 10.4607 24.1268 10.5287 24.2619 10.6647C24.3969 10.8007 24.4645 10.9688 24.4645 11.169V22.8296C24.4645 23.0308 24.3965 23.1994 24.2605 23.3354C24.1245 23.4714 23.9564 23.5389 23.7561 23.5379C23.5559 23.537 23.3878 23.4695 23.2518 23.3354C23.1158 23.2012 23.0478 23.0327 23.0478 22.8296M9.53564 21.3988V12.6013C9.53564 12.2575 9.64992 11.9808 9.87848 11.7711C10.108 11.5614 10.3753 11.4566 10.6803 11.4566C10.7984 11.4566 10.9098 11.4679 11.0146 11.4906C11.1195 11.5133 11.222 11.5633 11.3221 11.6408L17.9266 16.0494C18.1032 16.1722 18.2307 16.3115 18.3091 16.4674C18.3874 16.6232 18.4271 16.8007 18.4281 17C18.429 17.1993 18.3893 17.3769 18.3091 17.5327C18.2307 17.6876 18.1032 17.8269 17.9266 17.9506L11.3221 22.3593C11.2229 22.4348 11.1204 22.4849 11.0146 22.5094C10.9089 22.534 10.797 22.5458 10.6789 22.5449C10.3738 22.5449 10.107 22.4396 9.87848 22.2289C9.64992 22.0193 9.53564 21.743 9.53564 21.4002" fill="#CCCCFF"/>
</g>
</svg>
