<svg width="21" height="18" viewBox="0 0 21 18" fill="none" xmlns="http://www.w3.org/2000/svg">
<g id="frame">
<path id="vector" d="M18.5 4.5C18.5 4.5 20 6 20 8.5C20 11 18.5 12.5 18.5 12.5" stroke="#CCCCFF" stroke-width="1.5" stroke-linecap="round" stroke-linejoin="round"/>
<path id="vector_2" d="M1 10.857V7.14301C1 6.61258 1.21071 6.10387 1.58579 5.7288C1.96086 5.35373 2.46957 5.14301 3 5.14301H5.9C6.09552 5.14296 6.28674 5.0856 6.45 4.97801L12.45 1.02201C12.6008 0.922734 12.7756 0.866111 12.9559 0.858151C13.1362 0.85019 13.3154 0.891189 13.4743 0.976798C13.6332 1.06241 13.766 1.18943 13.8585 1.3444C13.9511 1.49937 14 1.67651 14 1.85701V16.143C14 16.3235 13.9511 16.5007 13.8585 16.6556C13.766 16.8106 13.6332 16.9376 13.4743 17.0232C13.3154 17.1088 13.1362 17.1498 12.9559 17.1419C12.7756 17.1339 12.6008 17.0773 12.45 16.978L6.45 13.022C6.28674 12.9144 6.09552 12.8571 5.9 12.857H3C2.46957 12.857 1.96086 12.6463 1.58579 12.2712C1.21071 11.8962 1 11.3874 1 10.857Z" stroke="#CCCCFF" stroke-width="1.5"/>
</g>
</svg>
