<svg width="24" height="24" viewBox="0 0 24 24" fill="none" xmlns="http://www.w3.org/2000/svg">
<g id="frame">
<path id="vector" d="M19.067 4.43296C18.9498 4.31573 18.7908 4.24988 18.625 4.24988C18.4592 4.24988 18.3002 4.31573 18.183 4.43296C18.0658 4.55019 17.9999 4.70918 17.9999 4.87496C17.9999 5.04074 18.0658 5.19973 18.183 5.31696L19.866 6.99996H19.375C15.181 6.99996 12.7995 9.34796 10.602 11.515L10.561 11.555C8.3325 13.7525 6.28 15.75 2.625 15.75C2.45924 15.75 2.30027 15.8158 2.18306 15.933C2.06585 16.0502 2 16.2092 2 16.375C2 16.5407 2.06585 16.6997 2.18306 16.8169C2.30027 16.9341 2.45924 17 2.625 17C6.819 17 9.2005 14.652 11.398 12.485L11.439 12.445C13.6675 10.2475 15.72 8.24996 19.375 8.24996H19.866L18.183 9.93296C18.0658 10.0502 17.9999 10.2092 17.9999 10.375C17.9999 10.5407 18.0658 10.6997 18.183 10.817C18.3002 10.9342 18.4592 11 18.625 11C18.7908 11 18.9498 10.9342 19.067 10.817L21.817 8.06696C21.8751 8.00892 21.9211 7.94002 21.9525 7.86418C21.9839 7.78834 22.0001 7.70705 22.0001 7.62496C22.0001 7.54287 21.9839 7.46158 21.9525 7.38575C21.9211 7.30991 21.8751 7.241 21.817 7.18296L19.067 4.43296ZM2.625 6.99996C6.1215 6.99996 8.358 8.63196 10.2785 10.43C10.1685 10.5376 10.0602 10.6443 9.9535 10.75L9.859 10.843L9.3855 11.308C7.5565 9.60346 5.6335 8.24996 2.625 8.24996C2.45924 8.24996 2.30027 8.18411 2.18306 8.0669C2.06585 7.94969 2 7.79072 2 7.62496C2 7.4592 2.06585 7.30023 2.18306 7.18302C2.30027 7.06581 2.45924 6.99996 2.625 6.99996ZM19.375 17C15.879 17 13.642 15.368 11.7215 13.57L12.0475 13.2495L12.141 13.157L12.6145 12.692C14.444 14.3965 16.3665 15.75 19.375 15.75H19.866L18.183 14.067C18.0658 13.9497 17.9999 13.7907 17.9999 13.625C17.9999 13.4592 18.0658 13.3002 18.183 13.183C18.3002 13.0657 18.4592 12.9999 18.625 12.9999C18.7908 12.9999 18.9498 13.0657 19.067 13.183L21.817 15.933C21.8751 15.991 21.9211 16.0599 21.9525 16.1357C21.9839 16.2116 22.0001 16.2929 22.0001 16.375C22.0001 16.4571 21.9839 16.5383 21.9525 16.6142C21.9211 16.69 21.8751 16.7589 21.817 16.817L19.067 19.567C18.9498 19.6842 18.7908 19.75 18.625 19.75C18.4592 19.75 18.3002 19.6842 18.183 19.567C18.0658 19.4497 17.9999 19.2907 17.9999 19.125C17.9999 18.9592 18.0658 18.8002 18.183 18.683L19.866 17H19.375Z" fill="#CCCCFF"/>
</g>
</svg>
