<svg width="64" height="64" viewBox="0 0 64 64" fill="none" xmlns="http://www.w3.org/2000/svg">
<g id="material-symbols-light:music-note">
<path id="vector" d="M26.8205 37.3214H26.8213C27.7829 37.3214 28.6901 37.4917 29.5468 37.8304C30.3974 38.1677 31.1452 38.6731 31.7933 39.3509L32.6547 40.2519V39.0054V11.6787H44.6786V17.4494H34.8213H34.3213V17.9494V44.8214C34.3213 46.8866 33.5909 48.6424 32.116 50.1156C30.6407 51.5892 28.8846 52.3197 26.8209 52.3214C24.7539 52.3213 22.9975 51.5908 21.5244 50.116C20.0509 48.6409 19.3213 46.8849 19.3213 44.8214C19.3213 42.7578 20.0509 41.0009 21.5246 39.5239C22.9976 38.0475 24.7538 37.318 26.8205 37.3214Z" stroke="#CCCCFF"/>
</g>
</svg>
