<svg width="54" height="55" viewBox="0 0 54 55" fill="none" xmlns="http://www.w3.org/2000/svg">
<g id="material-symbols-light:home-rounded">
<path id="vector" d="M11.25 43.25V23.693C11.25 23.117 11.379 22.5718 11.637 22.0573C11.895 21.5428 12.2505 21.119 12.7035 20.786L24.8198 11.6105C25.4543 11.126 26.1788 10.8838 26.9933 10.8838C27.8078 10.8838 28.5368 11.126 29.1803 11.6105L41.2965 20.7838C41.751 21.1168 42.1065 21.5413 42.363 22.0573C42.621 22.5718 42.75 23.117 42.75 23.693V43.25C42.75 43.853 42.5258 44.3788 42.0773 44.8273C41.6288 45.2758 41.103 45.5 40.5 45.5H32.886C32.37 45.5 31.938 45.326 31.59 44.978C31.242 44.6285 31.068 44.1965 31.068 43.682V32.9518C31.068 32.4373 30.894 32.006 30.546 31.658C30.1965 31.3085 29.7645 31.1338 29.25 31.1338H24.75C24.2355 31.1338 23.8043 31.3085 23.4563 31.658C23.1068 32.006 22.932 32.4373 22.932 32.9518V43.6843C22.932 44.1988 22.758 44.63 22.41 44.978C22.062 45.326 21.6308 45.5 21.1163 45.5H13.5C12.897 45.5 12.3712 45.2758 11.9227 44.8273C11.4742 44.3788 11.25 43.853 11.25 43.25Z" fill="#CCCCFF"/>
</g>
</svg>
