<svg width="24" height="24" viewBox="0 0 24 24" fill="none" xmlns="http://www.w3.org/2000/svg">
<g id="frame-container">
<g id="frame">
<path id="vector" d="M13 22C17.055 21.992 19.178 21.893 20.535 20.535C22 19.072 22 16.714 22 12C22 7.286 22 4.929 20.535 3.464C19.071 2 16.714 2 12 2C7.286 2 4.929 2 3.464 3.464C2.107 4.822 2.008 6.944 2 11" stroke="#CCCCFF" stroke-width="1.5" stroke-linecap="round"/>
<path id="vector_2" d="M17 7L12 12M12 12H15.75M12 12V8.25" stroke="#CCCCFF" stroke-width="1.5" stroke-linecap="round" stroke-linejoin="round"/>
<path id="vector_3" d="M2 18C2 16.114 2 15.172 2.586 14.586C3.172 14 4.114 14 6 14C7.886 14 8.828 14 9.414 14.586C10 15.172 10 16.114 10 18C10 19.886 10 20.828 9.414 21.414C8.828 22 7.886 22 6 22C4.114 22 3.172 22 2.586 21.414C2 20.828 2 19.886 2 18Z" stroke="#CCCCFF" stroke-width="1.5"/>
</g>
</g>
</svg>
