<svg width="24" height="24" viewBox="0 0 24 24" fill="none" xmlns="http://www.w3.org/2000/svg">
<g id="frame">
<path id="vector" d="M15.75 1.6875C14.8089 1.68687 13.8786 1.88884 13.0225 2.2797C12.1663 2.67056 11.4044 3.24114 10.7883 3.95267C10.1723 4.6642 9.71673 5.50001 9.45247 6.40329C9.1882 7.30657 9.12149 8.25615 9.25686 9.1875L2.69436 18.1369C2.50768 18.3891 2.4181 18.7 2.44204 19.0129C2.46597 19.3257 2.60181 19.6195 2.82468 19.8403L4.1653 21.1809C4.38625 21.4036 4.67997 21.5394 4.99276 21.5633C5.30554 21.5872 5.61649 21.4977 5.86874 21.3113L14.8181 14.7488C15.7089 14.8738 16.6158 14.8144 17.4827 14.5742C18.3495 14.334 19.1577 13.9182 19.8571 13.3526C20.5565 12.7869 21.1322 12.0836 21.5483 11.2861C21.9645 10.4887 22.2123 9.61421 22.2763 8.717C22.3403 7.81978 22.2192 6.91898 21.9204 6.07054C21.6217 5.22209 21.1518 4.44412 20.5397 3.78492C19.9277 3.12572 19.1867 2.59938 18.3628 2.23857C17.5388 1.87776 16.6495 1.69019 15.75 1.6875ZM21.1875 8.25C21.1886 9.49772 20.758 10.7074 19.9687 11.6738L12.3272 4.03125C13.1243 3.38311 14.0888 2.97427 15.1088 2.85214C16.1289 2.73001 17.1627 2.89961 18.0902 3.34126C19.0178 3.78291 19.8011 4.4785 20.3493 5.34735C20.8975 6.21619 21.1882 7.22266 21.1875 8.25ZM5.20311 20.3991C5.16696 20.4256 5.12249 20.4383 5.07776 20.4349C5.03304 20.4314 4.99103 20.4121 4.95936 20.3803L3.61968 19.0406C3.58791 19.009 3.56855 18.9669 3.56511 18.9222C3.56167 18.8775 3.57438 18.833 3.60093 18.7969L9.62155 10.5881C9.95275 11.4502 10.4614 12.2331 11.1145 12.8861C11.7676 13.539 12.5506 14.0475 13.4128 14.3784L5.20311 20.3991ZM10.3125 8.25C10.312 7.00239 10.7425 5.79292 11.5312 4.82625L19.1747 12.4688C18.3771 13.1155 17.4126 13.5232 16.3929 13.6446C15.3732 13.766 14.34 13.5962 13.4128 13.1548C12.4856 12.7135 11.7024 12.0186 11.1537 11.1505C10.605 10.2825 10.3134 9.27689 10.3125 8.25ZM10.1484 13.8516C10.2007 13.9038 10.2422 13.9658 10.2705 14.0341C10.2988 14.1024 10.3134 14.1756 10.3134 14.2495C10.3134 14.3235 10.2988 14.3967 10.2705 14.4649C10.2422 14.5332 10.2007 14.5953 10.1484 14.6475L9.39843 15.3975C9.34617 15.4498 9.28412 15.4912 9.21584 15.5195C9.14755 15.5478 9.07437 15.5623 9.00046 15.5623C8.92655 15.5623 8.85336 15.5478 8.78508 15.5195C8.7168 15.4912 8.65475 15.4498 8.60249 15.3975C8.55023 15.3452 8.50877 15.2832 8.48049 15.2149C8.4522 15.1466 8.43765 15.0734 8.43765 14.9995C8.43765 14.9256 8.4522 14.8524 8.48049 14.7842C8.50877 14.7159 8.55023 14.6538 8.60249 14.6016L9.35249 13.8516C9.40469 13.7991 9.46673 13.7574 9.53507 13.7289C9.60341 13.7004 9.6767 13.6857 9.75073 13.6857C9.82477 13.6856 9.89809 13.7001 9.96649 13.7284C10.0349 13.7567 10.097 13.7982 10.1494 13.8506L10.1484 13.8516Z" fill="#CCCCFF"/>
</g>
</svg>
